<?xml version="1.0" encoding="UTF-8" standalone="no"?>
<!-- Created with Inkscape (http://www.inkscape.org/) -->

<svg
   xmlns:dc="http://purl.org/dc/elements/1.1/"
   xmlns:cc="http://creativecommons.org/ns#"
   xmlns:rdf="http://www.w3.org/1999/02/22-rdf-syntax-ns#"
   xmlns:svg="http://www.w3.org/2000/svg"
   xmlns="http://www.w3.org/2000/svg"
   version="1.2"
   width="220.92999"
   height="82"
   id="svg4571">
  <defs
     id="defs4573"><clipPath
   id="clipPath2999">
  <path
     d="M 0,288 288,288 288,0 0,0 0,288 z"
     id="path3001" />
</clipPath>











































































<clipPath
   id="clipPath5900">
  <path
     d="m 171.18644,495.15878 a 64.406776,63.983051 0 1 1 -128.813553,0 64.406776,63.983051 0 1 1 128.813553,0 z"
     transform="matrix(1.3485721,0,0,1.3575029,231.35298,-139.60772)"
     id="path5902"
     style="fill:none;stroke:#000000;stroke-width:0.2;stroke-miterlimit:4;stroke-opacity:1;stroke-dasharray:none" />
</clipPath>
</defs>
  <metadata
     id="metadata4576">
    <rdf:RDF>
      <cc:Work
         rdf:about="">
        <dc:format>image/svg+xml</dc:format>
        <dc:type
           rdf:resource="http://purl.org/dc/dcmitype/StillImage" />
        <dc:title></dc:title>
      </cc:Work>
    </rdf:RDF>
  </metadata>
  <g
     transform="translate(-292.49587,-532.42894)"
     id="layer1">
    <g
       transform="matrix(0.41447352,0,0,0.41447352,176.92197,352.69205)"
       clip-path="url(#clipPath5900)"
       id="g5317">
      <g
         transform="matrix(1.25,0,0,-1.25,480.44202,533.37984)"
         id="g3003">
        <path
           d="m 0,0 c 0,-44.874 -36.381,-81.253 -81.254,-81.253 -44.877,0 -81.254,36.379 -81.254,81.253 0,44.876 36.377,81.254 81.254,81.254 C -36.381,81.254 0,44.876 0,0"
           id="path3005"
           style="fill:#badd16;fill-opacity:1;fill-rule:nonzero;stroke:none" />
      </g>
      <g
         transform="matrix(1.25,0,0,-1.25,374.04802,529.04384)"
         id="g3007">
        <path
           d="m 0,0 -17.772,85.071 c 11.745,2.453 22.883,2.512 34.655,0.18 L 0,0 z"
           id="path3009"
           style="fill:#9bbc21;fill-opacity:1;fill-rule:nonzero;stroke:none" />
      </g>
      <g
         transform="matrix(1.25,0,0,-1.25,374.04802,529.04384)"
         id="g3011">
        <path
           d="m 0,0 -72.72,47.587 c 6.57,10.041 14.403,17.956 24.374,24.631 L 0,0 z"
           id="path3013"
           style="fill:#9bbc21;fill-opacity:1;fill-rule:nonzero;stroke:none" />
      </g>
      <g
         transform="matrix(1.25,0,0,-1.25,374.04802,529.04384)"
         id="g3015">
        <path
           d="m 0,0 -85.071,-17.771 c -2.454,11.745 -2.511,22.882 -0.18,34.65 L 0,0 z"
           id="path3017"
           style="fill:#9bbc21;fill-opacity:1;fill-rule:nonzero;stroke:none" />
      </g>
      <g
         transform="matrix(1.25,0,0,-1.25,374.04802,529.04384)"
         id="g3019">
        <path
           d="m 0,0 -47.588,-72.72 c -10.04,6.571 -17.957,14.403 -24.63,24.375 L 0,0 z"
           id="path3021"
           style="fill:#9bbc21;fill-opacity:1;fill-rule:nonzero;stroke:none" />
      </g>
      <g
         transform="matrix(1.25,0,0,-1.25,374.04802,529.04384)"
         id="g3023">
        <path
           d="m 0,0 17.773,-85.071 c -11.746,-2.453 -22.884,-2.51 -34.653,-0.18 L 0,0 z"
           id="path3025"
           style="fill:#9bbc21;fill-opacity:1;fill-rule:nonzero;stroke:none" />
      </g>
      <g
         transform="matrix(1.25,0,0,-1.25,374.04802,529.04384)"
         id="g3027">
        <path
           d="M 0,0 72.721,-47.587 C 66.15,-57.628 58.318,-65.544 48.346,-72.218 L 0,0 z"
           id="path3029"
           style="fill:#9bbc21;fill-opacity:1;fill-rule:nonzero;stroke:none" />
      </g>
      <g
         transform="matrix(1.25,0,0,-1.25,374.04802,529.04384)"
         id="g3031">
        <path
           d="m 0,0 85.072,17.771 c 2.453,-11.744 2.51,-22.881 0.18,-34.653 L 0,0 z"
           id="path3033"
           style="fill:#9bbc21;fill-opacity:1;fill-rule:nonzero;stroke:none" />
      </g>
      <g
         transform="matrix(1.25,0,0,-1.25,374.04802,529.04384)"
         id="g3035">
        <path
           d="M 0,0 47.588,72.721 C 57.629,66.151 65.545,58.317 72.219,48.346 L 0,0 z"
           id="path3037"
           style="fill:#9bbc21;fill-opacity:1;fill-rule:nonzero;stroke:none" />
      </g>
      <g
         transform="matrix(1.25,0,0,-1.25,375.13939,402.64496)"
         id="g3039" />
      <g
         transform="matrix(1.25,0,0,-1.25,420.98401,567.92571)"
         id="g3047">
        <path
           d="m 0,0 c 0,-2.975 -3.271,-5.384 -7.307,-5.384 l -58.523,0 c -4.036,0 -7.309,2.409 -7.309,5.384 l 0,43.09 c 0,2.973 3.273,5.383 7.309,5.383 l 58.523,0 C -3.271,48.473 0,46.063 0,43.09 L 0,0 z"
           id="path3049"
           style="fill:#000000;fill-opacity:1;fill-rule:nonzero;stroke:none" />
      </g>
      <g
         transform="matrix(1.25,0,0,-1.25,408.58902,537.64621)"
         id="g3051">
        <path
           d="m 0,0 c 0,-5.762 -4.67,-10.433 -10.432,-10.433 -5.761,0 -10.433,4.671 -10.433,10.433 0,5.762 4.672,10.433 10.433,10.433 C -4.67,10.433 0,5.762 0,0"
           id="path3053"
           style="fill:#9bbc21;fill-opacity:1;fill-rule:nonzero;stroke:none" />
      </g>
      <g
         transform="matrix(1.25,0,0,-1.25,398.31077,534.29784)"
         id="g3055">
        <path
           d="m 0,0 c 0,-2.311 -1.873,-4.184 -4.184,-4.184 -2.308,0 -4.181,1.873 -4.181,4.184 0,2.31 1.873,4.182 4.181,4.182 C -1.873,4.182 0,2.31 0,0"
           id="path3057"
           style="fill:#ffffff;fill-opacity:1;fill-rule:nonzero;stroke:none" />
      </g>
      <g
         transform="matrix(1.25,0,0,-1.25,401.24777,541.70134)"
         id="g3059">
        <path
           d="m 0,0 c 0,-0.96 -0.779,-1.739 -1.74,-1.739 -0.961,0 -1.739,0.779 -1.739,1.739 0,0.961 0.778,1.739 1.739,1.739 C -0.779,1.739 0,0.961 0,0"
           id="path3061"
           style="fill:#ffffff;fill-opacity:1;fill-rule:nonzero;stroke:none" />
      </g>
      <g
         transform="matrix(1.25,0,0,-1.25,368.57802,537.64621)"
         id="g3063">
        <path
           d="m 0,0 c 0,-5.762 -4.671,-10.433 -10.433,-10.433 -5.761,0 -10.432,4.671 -10.432,10.433 0,5.762 4.671,10.433 10.432,10.433 C -4.671,10.433 0,5.762 0,0"
           id="path3065"
           style="fill:#9bbc21;fill-opacity:1;fill-rule:nonzero;stroke:none" />
      </g>
      <g
         transform="matrix(1.25,0,0,-1.25,357.59352,534.29784)"
         id="g3067">
        <path
           d="m 0,0 c 0,-2.311 -1.873,-4.184 -4.183,-4.184 -2.309,0 -4.182,1.873 -4.182,4.184 0,2.31 1.873,4.182 4.182,4.182 C -1.873,4.182 0,2.31 0,0"
           id="path3069"
           style="fill:#ffffff;fill-opacity:1;fill-rule:nonzero;stroke:none" />
      </g>
      <g
         transform="matrix(1.25,0,0,-1.25,360.53114,541.70134)"
         id="g3071">
        <path
           d="m 0,0 c 0,-0.96 -0.779,-1.739 -1.739,-1.739 -0.96,0 -1.739,0.779 -1.739,1.739 0,0.961 0.779,1.739 1.739,1.739 C -0.779,1.739 0,0.961 0,0"
           id="path3073"
           style="fill:#ffffff;fill-opacity:1;fill-rule:nonzero;stroke:none" />
      </g>
      <g
         transform="matrix(1.25,0,0,-1.25,332.72114,540.31346)"
         id="g3075">
        <path
           d="m 0,0 c 0,-3.585 -2.241,-6.49 -5.005,-6.49 -2.764,0 -5.005,2.905 -5.005,6.49 l 0,10.422 c 0,3.585 2.241,6.491 5.005,6.491 C -2.241,16.913 0,14.007 0,10.422 L 0,0 z"
           id="path3077"
           style="fill:#000000;fill-opacity:1;fill-rule:nonzero;stroke:none" />
      </g>
      <g
         transform="matrix(1.25,0,0,-1.25,322.67601,535.62834)"
         id="g3079">
        <path
           d="m 0,0 c 0,-2.675 -1.672,-4.845 -3.736,-4.845 -2.064,0 -3.736,2.17 -3.736,4.845 l 0,2.926 c 0,2.675 1.672,4.845 3.736,4.845 C -1.672,7.771 0,5.601 0,2.926 L 0,0 z"
           id="path3081"
           style="fill:#000000;fill-opacity:1;fill-rule:nonzero;stroke:none" />
      </g>
      <g
         transform="matrix(1.25,0,0,-1.25,418.90152,540.31346)"
         id="g3083">
        <path
           d="m 0,0 c 0,-3.585 2.24,-6.49 5.006,-6.49 2.762,0 5.004,2.905 5.004,6.49 l 0,10.422 c 0,3.585 -2.242,6.491 -5.004,6.491 C 2.24,16.913 0,14.007 0,10.422 L 0,0 z"
           id="path3085"
           style="fill:#000000;fill-opacity:1;fill-rule:nonzero;stroke:none" />
      </g>
      <g
         transform="matrix(1.25,0,0,-1.25,428.94551,535.62834)"
         id="g3087">
        <path
           d="m 0,0 c 0,-2.675 1.674,-4.845 3.736,-4.845 2.063,0 3.737,2.17 3.737,4.845 l 0,2.926 C 7.473,5.601 5.799,7.771 3.736,7.771 1.674,7.771 0,5.601 0,2.926 L 0,0 z"
           id="path3089"
           style="fill:#000000;fill-opacity:1;fill-rule:nonzero;stroke:none" />
      </g>
      <g
         transform="matrix(1.25,0,0,-1.25,392.99827,514.54071)"
         id="g3091">
        <path
           d="M 0,0 C -1.063,-1.333 -3.006,-1.555 -4.34,-0.493 L -5.889,0.739 C -7.223,1.8 -7.441,3.744 -6.381,5.078 -5.318,6.415 7.324,20.076 8.658,19.014 l 1.547,-1.231 C 11.539,16.721 1.061,1.336 0,0"
           id="path3093"
           style="fill:#000000;fill-opacity:1;fill-rule:nonzero;stroke:none" />
      </g>
      <g
         transform="matrix(1.25,0,0,-1.25,402.26827,488.44209)"
         id="g3095">
        <path
           d="M 0,0 C -1.072,-1.348 -0.85,-3.312 0.5,-4.385 1.848,-5.458 3.813,-5.235 4.885,-3.888 5.959,-2.54 5.736,-0.576 4.387,0.498 3.037,1.572 1.076,1.349 0,0"
           id="path3097"
           style="fill:#000000;fill-opacity:1;fill-rule:nonzero;stroke:none" />
      </g>
      <g
         transform="matrix(1.25,0,0,-1.25,405.83264,488.54709)"
         id="g3099">
        <path
           d="m 0,0 c -0.709,1.143 0.557,2.763 1.225,3.701 0.8,1.127 1.896,2.101 3.343,2.174 1.305,0.065 2.364,-0.033 3.481,0.702 0.908,0.595 1.859,1.483 2.39,2.438 0.047,0.083 0.073,0.139 0.129,0.209 C 9.891,8.393 10.285,7.043 10.262,6.07 10.232,4.92 10.078,3.831 9.486,2.814 8.721,1.5 7.734,0.26 6.447,-0.577 5.369,-1.276 3.943,-2.051 2.625,-2.063 1.807,-2.07 0.916,-1.768 0.32,-1.188 c -0.568,0.551 -0.425,1.122 -0.383,1.875"
           id="path3101"
           style="fill:#000000;fill-opacity:1;fill-rule:nonzero;stroke:none" />
      </g>
      <g
         transform="matrix(1.25,0,0,-1.25,352.80164,471.67934)"
         id="g3103">
        <path
           d="M 0,0 2.62,-4.521 C 2.705,-4.668 2.768,-4.945 2.691,-5.258 1.63,-7.35 -0.268,-8.007 -2.842,-7.845 -3.386,-7.647 -4.087,-7.2 -4.078,-6.962 l -2.415,4.417 c -0.823,0.401 -1.356,-1.693 -0.537,-5.395 0.77,-4.31 3.85,-5.547 10.058,-4.482 4.68,3.273 4.415,6.727 3.052,8.175 C 3.395,-0.834 0.01,1.419 0,0"
           id="path3105"
           style="fill:#000000;fill-opacity:1;fill-rule:nonzero;stroke:none" />
      </g>
      <g
         transform="matrix(1.25,0,0,-1.25,363.64889,508.32984)"
         id="g3107">
        <path
           d="M 0,0 C 0.356,-1.667 -1.489,-1.496 -3.156,-1.853 L -5.09,-2.266 c -1.668,-0.355 -3.309,0.708 -3.666,2.375 L -6.09,0.032 c -0.423,1.428 -2.037,8.615 -3.434,13.283 -0.508,1.695 -2.151,3 -2.916,3.489 -2.688,1.71 -1.081,2.076 -2.368,2.799 -0.948,0.532 4.532,0.908 4.84,0.973 l 2.707,0.457 c 0.437,-0.114 4.664,-0.869 4.214,-1.776 -0.545,-1.098 -0.876,-3.255 -0.55,-4.853 C -2.753,10.283 -0.223,1.048 0,0"
           id="path3109"
           style="fill:#000000;fill-opacity:1;fill-rule:nonzero;stroke:none" />
      </g>
    </g>
    <g
       transform="translate(0,-18.660764)"
       id="g6216"
       style="fill:#ffffff">
      <path
         d="m 373.53944,575.41762 c 0,6.02263 4.24453,10.69734 10.4679,10.69734 5.24829,0 8.20225,-3.49886 8.20225,-3.49886 l -1.97886,-2.69584 c 0,0 -2.32302,2.69584 -6.16603,2.69584 -3.69961,0 -6.62489,-3.21207 -6.62489,-7.19848 0,-4.24451 2.86792,-6.85432 6.51017,-6.85432 1.77811,0 4.21585,0.6883 4.21585,2.17962 l 0,1.14717 3.41282,0 0,-2.26566 c 0,-3.47018 -5.1049,-4.55999 -7.7147,-4.55999 -5.90791,0 -10.32451,4.47396 -10.32451,10.35318"
         id="path6031"
         style="font-size:69.19425964px;font-style:normal;font-variant:normal;font-weight:600;font-stretch:normal;text-align:start;line-height:125%;letter-spacing:0px;word-spacing:0px;writing-mode:lr-tb;text-anchor:start;fill:#ffffff;fill-opacity:1;stroke:none;font-family:Museo;-inkscape-font-specification:Museo Semi-Bold" />
      <path
         d="m 395.33517,580.5512 c 0,3.9864 1.92152,5.56376 5.04754,5.56376 2.52377,0 4.35924,-1.52 5.04754,-3.03999 l 0.0574,0 c 0,0 -0.0287,0.31547 -0.0287,0.65962 l 0,0.40151 c 0,1.03245 0.65962,1.63471 1.9215,1.63471 l 3.35547,0 0,-3.06867 -1.14717,0 c -0.40151,0 -0.63094,-0.22943 -0.63094,-0.63094 l 0,-10.92677 -3.64226,0 0,6.71093 c 0,2.6098 -1.46264,4.93282 -4.10112,4.93282 -1.80679,0 -2.26566,-1.20453 -2.26566,-2.98264 l 0,-6.7396 c 0,-1.31925 -0.57359,-1.92151 -1.92151,-1.92151 l -3.47018,0 0,3.09735 1.14717,0 c 0.40151,0 0.63094,0.20075 0.63094,0.63094 l 0,5.67848"
         id="path6033"
         style="font-size:69.19425964px;font-style:normal;font-variant:normal;font-weight:600;font-stretch:normal;text-align:start;line-height:125%;letter-spacing:0px;word-spacing:0px;writing-mode:lr-tb;text-anchor:start;fill:#ffffff;fill-opacity:1;stroke:none;font-family:Museo;-inkscape-font-specification:Museo Semi-Bold" />
      <path
         d="m 413.70913,585.77081 3.61357,0 0,-5.79319 c 0,-0.86038 0.11472,-1.6634 0.31547,-2.38037 0.65963,-2.17962 2.43774,-3.06868 3.98641,-3.06868 0.51623,0 0.88906,0.0574 0.88906,0.0574 l 0,-3.5849 c 0,0 -0.34415,-0.0574 -0.65962,-0.0574 -2.23698,0 -3.98641,1.6634 -4.64603,3.75698 l -0.0574,0 c 0,0 0.0574,-0.37283 0.0574,-0.91774 l 0,-0.86037 c 0,-1.23321 -0.65963,-1.77811 -1.95019,-1.77811 l -3.32678,0 0,3.09735 1.14716,0 c 0.40151,0 0.63095,0.20075 0.63095,0.63094 l 0,10.89809"
         id="path6035"
         style="font-size:69.19425964px;font-style:normal;font-variant:normal;font-weight:600;font-stretch:normal;text-align:start;line-height:125%;letter-spacing:0px;word-spacing:0px;writing-mode:lr-tb;text-anchor:start;fill:#ffffff;fill-opacity:1;stroke:none;font-family:Museo;-inkscape-font-specification:Museo Semi-Bold" />
      <path
         d="m 425.81488,568.76406 3.15471,0 0,-3.35547 -3.15471,0 0,3.35547 m -0.17208,15.05657 c 0,1.3766 0.57359,1.95018 1.92151,1.95018 l 3.47018,0 0,-3.06867 -1.14717,0 c -0.4015,0 -0.63094,-0.22943 -0.63094,-0.63094 l 0,-8.97659 c 0,-1.34792 -0.57358,-1.95018 -1.9215,-1.95018 l -3.47019,0 0,3.09735 1.14717,0 c 0.40151,0 0.63094,0.20075 0.63094,0.63094 l 0,8.94791"
         id="path6037"
         style="font-size:69.19425964px;font-style:normal;font-variant:normal;font-weight:600;font-stretch:normal;text-align:start;line-height:125%;letter-spacing:0px;word-spacing:0px;writing-mode:lr-tb;text-anchor:start;fill:#ffffff;fill-opacity:1;stroke:none;font-family:Museo;-inkscape-font-specification:Museo Semi-Bold" />
      <path
         d="m 432.6356,578.45762 c 0,4.50263 3.55622,7.65734 8.00149,7.65734 4.47395,0 8.03017,-3.15471 8.03017,-7.65734 0,-4.47395 -3.55622,-7.65734 -8.03017,-7.65734 -4.44527,0 -8.00149,3.18339 -8.00149,7.65734 m 3.67093,0 c 0,-2.69584 1.97887,-4.55999 4.33056,-4.55999 2.38037,0 4.35924,1.86415 4.35924,4.55999 0,2.72452 -1.97887,4.55999 -4.35924,4.55999 -2.35169,0 -4.33056,-1.83547 -4.33056,-4.55999"
         id="path6039"
         style="font-size:69.19425964px;font-style:normal;font-variant:normal;font-weight:600;font-stretch:normal;text-align:start;line-height:125%;letter-spacing:0px;word-spacing:0px;writing-mode:lr-tb;text-anchor:start;fill:#ffffff;fill-opacity:1;stroke:none;font-family:Museo;-inkscape-font-specification:Museo Semi-Bold" />
      <path
         d="m 450.30332,583.50516 c 0,0 2.06491,2.6098 6.07999,2.6098 3.18339,0 5.62112,-1.72075 5.62112,-4.47395 0,-4.87546 -7.77206,-4.4166 -7.77206,-6.71093 0,-0.86037 0.88906,-1.31924 2.17962,-1.31924 0.80302,0 1.83547,0.34415 1.83547,1.03245 l 0,0.71698 3.21207,0 0,-1.52 c 0,-2.38037 -3.15472,-3.03999 -5.13358,-3.03999 -3.03999,0 -5.67848,1.34792 -5.67848,4.2732 0,4.73206 7.7147,4.70339 7.7147,6.76829 0,0.97509 -0.86037,1.43395 -1.97886,1.43395 -2.49509,0 -4.35924,-2.15094 -4.35924,-2.15094 l -1.72075,2.38038"
         id="path6041"
         style="font-size:69.19425964px;font-style:normal;font-variant:normal;font-weight:600;font-stretch:normal;text-align:start;line-height:125%;letter-spacing:0px;word-spacing:0px;writing-mode:lr-tb;text-anchor:start;fill:#ffffff;fill-opacity:1;stroke:none;font-family:Museo;-inkscape-font-specification:Museo Semi-Bold" />
      <path
         d="m 465.69688,568.76406 3.15471,0 0,-3.35547 -3.15471,0 0,3.35547 m -0.17208,15.05657 c 0,1.3766 0.57359,1.95018 1.92151,1.95018 l 3.47018,0 0,-3.06867 -1.14717,0 c -0.40151,0 -0.63094,-0.22943 -0.63094,-0.63094 l 0,-8.97659 c 0,-1.34792 -0.57358,-1.95018 -1.92151,-1.95018 l -3.47018,0 0,3.09735 1.14717,0 c 0.40151,0 0.63094,0.20075 0.63094,0.63094 l 0,8.94791"
         id="path6043"
         style="font-size:69.19425964px;font-style:normal;font-variant:normal;font-weight:600;font-stretch:normal;text-align:start;line-height:125%;letter-spacing:0px;word-spacing:0px;writing-mode:lr-tb;text-anchor:start;fill:#ffffff;fill-opacity:1;stroke:none;font-family:Museo;-inkscape-font-specification:Museo Semi-Bold" />
      <path
         d="m 474.03759,580.40781 c 0,4.90413 4.04377,5.5064 6.07999,5.5064 0.65962,0 1.11849,-0.086 1.11849,-0.086 l 0,-3.18339 c 0,0 -0.25812,0.0574 -0.65962,0.0574 -1.00378,0 -2.8966,-0.34415 -2.8966,-2.7532 l 0,-5.90791 3.32678,0 0,-2.8966 -3.32678,0 0,-3.98641 -3.55622,0 0,3.98641 -1.97887,0 0,2.8966 1.89283,0 0,6.36678"
         id="path6045"
         style="font-size:69.19425964px;font-style:normal;font-variant:normal;font-weight:600;font-stretch:normal;text-align:start;line-height:125%;letter-spacing:0px;word-spacing:0px;writing-mode:lr-tb;text-anchor:start;fill:#ffffff;fill-opacity:1;stroke:none;font-family:Museo;-inkscape-font-specification:Museo Semi-Bold" />
      <path
         d="m 483.34041,587.721 -1.40528,2.58113 c 0,0 1.40528,1.49131 3.69961,1.49131 2.17962,0 4.24452,-1.17584 5.27697,-3.81433 l 5.24829,-13.2211 c 0.17208,-0.43019 0.40151,-0.51623 0.8317,-0.51623 l 0.43019,0 0,-3.09735 -2.46641,0 c -1.00377,0 -1.60603,0.37283 -1.95018,1.3766 l -2.4951,7.31319 c -0.25811,0.74566 -0.48754,1.95019 -0.48754,1.95019 l -0.0574,0 c 0,0 -0.22943,-1.20453 -0.51622,-1.95019 l -2.86792,-7.31319 c -0.37283,-1.00377 -0.88906,-1.3766 -1.92151,-1.3766 l -2.40905,0 0,3.09735 0.43019,0 c 0.4015,0 0.60226,0.086 0.77434,0.51623 l 4.87546,10.98413 -0.48755,1.11848 c -0.51623,1.26189 -1.40528,1.86415 -2.40905,1.86415 -1.20453,0 -2.09358,-1.00377 -2.09358,-1.00377"
         id="path6047"
         style="font-size:69.19425964px;font-style:normal;font-variant:normal;font-weight:600;font-stretch:normal;text-align:start;line-height:125%;letter-spacing:0px;word-spacing:0px;writing-mode:lr-tb;text-anchor:start;fill:#ffffff;fill-opacity:1;stroke:none;font-family:Museo;-inkscape-font-specification:Museo Semi-Bold" />
    </g>
    <g
       transform="translate(-132.81198,14.339236)"
       id="g6208"
       style="fill:#ffffff">
      <path
         d="m 508.21557,585.77081 3.75697,0 0,-8.5464 8.97659,0 0,8.5464 3.75697,0 0,-16.54789 c 0,-0.4015 0.22944,-0.63094 0.63094,-0.63094 l 1.23321,0 0,-3.18339 -3.67094,0 c -1.34792,0 -1.95018,0.60226 -1.95018,1.95019 l 0,6.68225 -8.97659,0 0,-6.68225 c 0,-1.34793 -0.57358,-1.95019 -1.95018,-1.95019 l -3.67094,0 0,3.18339 1.23321,0 c 0.4015,0 0.63094,0.22944 0.63094,0.63094 l 0,16.54789"
         id="path6049"
         style="font-size:69.19425964px;font-style:normal;font-variant:normal;font-weight:600;font-stretch:normal;text-align:start;line-height:125%;letter-spacing:0px;word-spacing:0px;writing-mode:lr-tb;text-anchor:start;fill:#ffffff;fill-opacity:1;stroke:none;font-family:Museo;-inkscape-font-specification:Museo Semi-Bold" />
      <path
         d="m 528.22423,581.55497 c 0,2.92528 2.38038,4.55999 4.99018,4.55999 3.2981,0 4.41659,-2.58112 4.41659,-2.58112 l 0.0574,0 c 0,0 -0.0287,0.25811 -0.0287,0.63094 0,0.86037 0.51622,1.60603 1.86414,1.60603 l 3.26943,0 0,-3.06867 -1.14717,0 c -0.4015,0 -0.63094,-0.22943 -0.63094,-0.63094 l 0,-5.44905 c 0,-3.26942 -1.43396,-5.82187 -6.30942,-5.82187 -1.51999,0 -5.36301,0.28679 -5.36301,3.01131 l 0,1.54868 3.38414,0 0,-0.77434 c 0,-0.80302 1.29057,-0.97509 1.95019,-0.97509 1.86415,0 2.69584,0.77434 2.69584,2.86792 l 0,0.11471 -0.45886,0 c -2.38037,0 -8.68979,0.37284 -8.68979,4.9615 m 3.67093,-0.17207 c 0,-2.03622 3.01132,-2.29434 4.90414,-2.29434 l 0.63094,0 0,0.34415 c 0,1.77811 -1.3766,3.84301 -3.32678,3.84301 -1.49132,0 -2.2083,-0.91773 -2.2083,-1.89282"
         id="path6051"
         style="font-size:69.19425964px;font-style:normal;font-variant:normal;font-weight:600;font-stretch:normal;text-align:start;line-height:125%;letter-spacing:0px;word-spacing:0px;writing-mode:lr-tb;text-anchor:start;fill:#ffffff;fill-opacity:1;stroke:none;font-family:Museo;-inkscape-font-specification:Museo Semi-Bold" />
      <path
         d="m 544.27158,578.45762 c 0,4.24452 3.09735,7.65734 7.91545,7.65734 3.98641,0 6.16603,-2.63848 6.16603,-2.63848 l -1.52,-2.52377 c 0,0 -1.83547,1.97886 -4.33055,1.97886 -2.3517,0 -4.56,-1.51999 -4.56,-4.50263 0,-2.63848 1.80679,-4.55999 4.33056,-4.55999 0.88905,0 2.09358,0.34415 2.09358,1.14717 l 0,0.80301 3.21207,0 0,-1.72075 c 0,-2.52376 -3.41282,-3.2981 -5.30565,-3.2981 -5.01885,0 -8.00149,3.52754 -8.00149,7.65734"
         id="path6053"
         style="font-size:69.19425964px;font-style:normal;font-variant:normal;font-weight:600;font-stretch:normal;text-align:start;line-height:125%;letter-spacing:0px;word-spacing:0px;writing-mode:lr-tb;text-anchor:start;fill:#ffffff;fill-opacity:1;stroke:none;font-family:Museo;-inkscape-font-specification:Museo Semi-Bold" />
      <path
         d="m 560.91133,585.77081 3.64226,0 0,-6.39546 0.80302,0 c 0.45886,0 1.06112,0.0287 1.34792,0.54491 l 2.43773,4.58867 c 0.57358,1.06113 1.06113,1.26188 2.29433,1.26188 l 2.69585,0 0,-3.06867 -0.9751,0 c -0.6883,0 -0.97509,-0.11472 -1.20452,-0.5449 l -1.66339,-3.15471 c -0.51623,-0.94642 -1.03246,-1.14717 -1.03246,-1.14717 l 0,-0.0574 c 0,0 0.45887,-0.22944 1.08981,-1.14717 l 3.69962,-5.5064 -4.04377,0 -2.98263,4.61735 c -0.31547,0.45886 -0.91774,0.5449 -1.3766,0.5449 l -1.08981,0 0,-9.2347 c 0,-1.34792 -0.60227,-1.66339 -1.95019,-1.66339 l -3.47018,0 0,3.09735 1.14717,0 c 0.40151,0 0.63094,0.20076 0.63094,0.63094 l 0,16.63393"
         id="path6055"
         style="font-size:69.19425964px;font-style:normal;font-variant:normal;font-weight:600;font-stretch:normal;text-align:start;line-height:125%;letter-spacing:0px;word-spacing:0px;writing-mode:lr-tb;text-anchor:start;fill:#ffffff;fill-opacity:1;stroke:none;font-family:Museo;-inkscape-font-specification:Museo Semi-Bold" />
      <path
         d="m 575.19133,578.45762 c 0,4.15848 3.01132,7.65734 7.8581,7.65734 3.64223,0 5.87923,-2.20829 5.87923,-2.20829 l -1.52,-2.52377 c 0,0 -1.74941,1.63471 -4.10112,1.63471 -2.2083,0 -4.10112,-1.34792 -4.38792,-3.92905 l 10.09508,0 c 0,0 0.0861,-0.91773 0.0861,-1.34792 0,-3.87169 -2.29436,-6.94036 -6.48151,-6.94036 -4.38791,0 -7.42791,3.15471 -7.42791,7.65734 m 3.84301,-1.89282 c 0.40151,-1.83547 1.72075,-2.95396 3.5849,-2.95396 1.49131,0 2.69583,1.20453 2.75319,2.95396 l -6.33809,0"
         id="path6057"
         style="font-size:69.19425964px;font-style:normal;font-variant:normal;font-weight:600;font-stretch:normal;text-align:start;line-height:125%;letter-spacing:0px;word-spacing:0px;writing-mode:lr-tb;text-anchor:start;fill:#ffffff;fill-opacity:1;stroke:none;font-family:Museo;-inkscape-font-specification:Museo Semi-Bold" />
      <path
         d="m 591.15533,578.45762 c 0,4.53131 2.55245,7.65734 6.51018,7.65734 3.35545,0 4.56,-2.38037 4.56,-2.38037 l 0.0574,0 c 0,0 0,0.22943 0,0.54491 0,0.86037 0.48754,1.49131 1.80677,1.49131 l 3.35545,0 0,-3.06867 -1.11849,0 c -0.4015,0 -0.63092,-0.22943 -0.63092,-0.63094 l 0,-14.71242 c 0,-1.34793 -0.60227,-1.95019 -1.95018,-1.95019 l -3.47018,0 0,3.09735 1.14714,0 c 0.40154,0 0.63096,0.20076 0.63096,0.63094 l 0,2.58113 c 0,0.48755 0.0286,0.86038 0.0286,0.86038 l -0.0574,0 c 0,0 -1.03245,-1.77811 -4.21582,-1.77811 -3.87172,0 -6.65358,3.01132 -6.65358,7.65734 m 7.31318,4.58867 c -2.15091,0 -3.61359,-1.80679 -3.61359,-4.58867 0,-2.8966 1.66341,-4.53131 3.67095,-4.53131 2.43773,0 3.61359,2.23698 3.61359,4.50263 0,3.24075 -1.77814,4.61735 -3.67095,4.61735"
         id="path6059"
         style="font-size:69.19425964px;font-style:normal;font-variant:normal;font-weight:600;font-stretch:normal;text-align:start;line-height:125%;letter-spacing:0px;word-spacing:0px;writing-mode:lr-tb;text-anchor:start;fill:#ffffff;fill-opacity:1;stroke:none;font-family:Museo;-inkscape-font-specification:Museo Semi-Bold" />
    </g>
  </g>
</svg>
