<?xml version="1.0" encoding="UTF-8" standalone="no"?>
<!-- Created with Inkscape (http://www.inkscape.org/) -->

<svg
   xmlns:dc="http://purl.org/dc/elements/1.1/"
   xmlns:cc="http://creativecommons.org/ns#"
   xmlns:rdf="http://www.w3.org/1999/02/22-rdf-syntax-ns#"
   xmlns:svg="http://www.w3.org/2000/svg"
   xmlns="http://www.w3.org/2000/svg"
   xmlns:sodipodi="http://sodipodi.sourceforge.net/DTD/sodipodi-0.dtd"
   xmlns:inkscape="http://www.inkscape.org/namespaces/inkscape"
   width="352"
   height="82"
   id="svg4571"
   version="1.1"
   inkscape:version="0.48.2 r9819"
   sodipodi:docname="chbanner1.svg">
  <defs
     id="defs4573"><clipPath
   clipPathUnits="userSpaceOnUse"
   id="clipPath2999">
  <path
     d="M 0,288 288,288 288,0 0,0 0,288 z"
     id="path3001"
     inkscape:connector-curvature="0" />
</clipPath>











































































<clipPath
   clipPathUnits="userSpaceOnUse"
   id="clipPath5900">
  <path
     sodipodi:type="arc"
     style="fill:none;stroke:#000000;stroke-width:0.2;stroke-miterlimit:4;stroke-opacity:1;stroke-dasharray:none"
     id="path5902"
     sodipodi:cx="106.77966"
     sodipodi:cy="495.15878"
     sodipodi:rx="64.406776"
     sodipodi:ry="63.983051"
     d="m 171.18644,495.15878 a 64.406776,63.983051 0 1 1 -128.813553,0 64.406776,63.983051 0 1 1 128.813553,0 z"
     transform="matrix(1.3485721,0,0,1.3575029,231.35298,-139.60772)" />
</clipPath>
</defs>
  <sodipodi:namedview
     id="base"
     pagecolor="#ffffff"
     bordercolor="#666666"
     borderopacity="1.0"
     inkscape:pageopacity="0.0"
     inkscape:pageshadow="2"
     inkscape:zoom="1"
     inkscape:cx="272.31788"
     inkscape:cy="107.72388"
     inkscape:document-units="px"
     inkscape:current-layer="layer1"
     showgrid="false"
     inkscape:window-width="1290"
     inkscape:window-height="722"
     inkscape:window-x="137"
     inkscape:window-y="30"
     inkscape:window-maximized="0"
     fit-margin-top="0"
     fit-margin-left="0"
     fit-margin-right="0"
     fit-margin-bottom="0" />
  <metadata
     id="metadata4576">
    <rdf:RDF>
      <cc:Work
         rdf:about="">
        <dc:format>image/svg+xml</dc:format>
        <dc:type
           rdf:resource="http://purl.org/dc/dcmitype/StillImage" />
        <dc:title></dc:title>
      </cc:Work>
    </rdf:RDF>
  </metadata>
  <g
     inkscape:label="Layer 1"
     inkscape:groupmode="layer"
     id="layer1"
     transform="translate(-288.49587,-537.42894)">
    <g
       id="g5317"
       clip-path="url(#clipPath5900)"
       transform="matrix(0.41447352,0,0,0.41447352,172.92197,357.69205)">
      <g
         id="g3003"
         transform="matrix(1.25,0,0,-1.25,480.44202,533.37984)">
        <path
           inkscape:connector-curvature="0"
           d="m 0,0 c 0,-44.874 -36.381,-81.253 -81.254,-81.253 -44.877,0 -81.254,36.379 -81.254,81.253 0,44.876 36.377,81.254 81.254,81.254 C -36.381,81.254 0,44.876 0,0"
           style="fill:#badd16;fill-opacity:1;fill-rule:nonzero;stroke:none"
           id="path3005" />
      </g>
      <g
         id="g3007"
         transform="matrix(1.25,0,0,-1.25,374.04802,529.04384)">
        <path
           inkscape:connector-curvature="0"
           d="m 0,0 -17.772,85.071 c 11.745,2.453 22.883,2.512 34.655,0.18 L 0,0 z"
           style="fill:#9bbc21;fill-opacity:1;fill-rule:nonzero;stroke:none"
           id="path3009" />
      </g>
      <g
         id="g3011"
         transform="matrix(1.25,0,0,-1.25,374.04802,529.04384)">
        <path
           inkscape:connector-curvature="0"
           d="m 0,0 -72.72,47.587 c 6.57,10.041 14.403,17.956 24.374,24.631 L 0,0 z"
           style="fill:#9bbc21;fill-opacity:1;fill-rule:nonzero;stroke:none"
           id="path3013" />
      </g>
      <g
         id="g3015"
         transform="matrix(1.25,0,0,-1.25,374.04802,529.04384)">
        <path
           inkscape:connector-curvature="0"
           d="m 0,0 -85.071,-17.771 c -2.454,11.745 -2.511,22.882 -0.18,34.65 L 0,0 z"
           style="fill:#9bbc21;fill-opacity:1;fill-rule:nonzero;stroke:none"
           id="path3017" />
      </g>
      <g
         id="g3019"
         transform="matrix(1.25,0,0,-1.25,374.04802,529.04384)">
        <path
           inkscape:connector-curvature="0"
           d="m 0,0 -47.588,-72.72 c -10.04,6.571 -17.957,14.403 -24.63,24.375 L 0,0 z"
           style="fill:#9bbc21;fill-opacity:1;fill-rule:nonzero;stroke:none"
           id="path3021" />
      </g>
      <g
         id="g3023"
         transform="matrix(1.25,0,0,-1.25,374.04802,529.04384)">
        <path
           inkscape:connector-curvature="0"
           d="m 0,0 17.773,-85.071 c -11.746,-2.453 -22.884,-2.51 -34.653,-0.18 L 0,0 z"
           style="fill:#9bbc21;fill-opacity:1;fill-rule:nonzero;stroke:none"
           id="path3025" />
      </g>
      <g
         id="g3027"
         transform="matrix(1.25,0,0,-1.25,374.04802,529.04384)">
        <path
           inkscape:connector-curvature="0"
           d="M 0,0 72.721,-47.587 C 66.15,-57.628 58.318,-65.544 48.346,-72.218 L 0,0 z"
           style="fill:#9bbc21;fill-opacity:1;fill-rule:nonzero;stroke:none"
           id="path3029" />
      </g>
      <g
         id="g3031"
         transform="matrix(1.25,0,0,-1.25,374.04802,529.04384)">
        <path
           inkscape:connector-curvature="0"
           d="m 0,0 85.072,17.771 c 2.453,-11.744 2.51,-22.881 0.18,-34.653 L 0,0 z"
           style="fill:#9bbc21;fill-opacity:1;fill-rule:nonzero;stroke:none"
           id="path3033" />
      </g>
      <g
         id="g3035"
         transform="matrix(1.25,0,0,-1.25,374.04802,529.04384)">
        <path
           inkscape:connector-curvature="0"
           d="M 0,0 47.588,72.721 C 57.629,66.151 65.545,58.317 72.219,48.346 L 0,0 z"
           style="fill:#9bbc21;fill-opacity:1;fill-rule:nonzero;stroke:none"
           id="path3037" />
      </g>
      <g
         id="g3039"
         transform="matrix(1.25,0,0,-1.25,375.13939,402.64496)" />
      <g
         id="g3047"
         transform="matrix(1.25,0,0,-1.25,420.98401,567.92571)">
        <path
           inkscape:connector-curvature="0"
           d="m 0,0 c 0,-2.975 -3.271,-5.384 -7.307,-5.384 l -58.523,0 c -4.036,0 -7.309,2.409 -7.309,5.384 l 0,43.09 c 0,2.973 3.273,5.383 7.309,5.383 l 58.523,0 C -3.271,48.473 0,46.063 0,43.09 L 0,0 z"
           style="fill:#000000;fill-opacity:1;fill-rule:nonzero;stroke:none"
           id="path3049" />
      </g>
      <g
         id="g3051"
         transform="matrix(1.25,0,0,-1.25,408.58902,537.64621)">
        <path
           inkscape:connector-curvature="0"
           d="m 0,0 c 0,-5.762 -4.67,-10.433 -10.432,-10.433 -5.761,0 -10.433,4.671 -10.433,10.433 0,5.762 4.672,10.433 10.433,10.433 C -4.67,10.433 0,5.762 0,0"
           style="fill:#9bbc21;fill-opacity:1;fill-rule:nonzero;stroke:none"
           id="path3053" />
      </g>
      <g
         id="g3055"
         transform="matrix(1.25,0,0,-1.25,398.31077,534.29784)">
        <path
           inkscape:connector-curvature="0"
           d="m 0,0 c 0,-2.311 -1.873,-4.184 -4.184,-4.184 -2.308,0 -4.181,1.873 -4.181,4.184 0,2.31 1.873,4.182 4.181,4.182 C -1.873,4.182 0,2.31 0,0"
           style="fill:#ffffff;fill-opacity:1;fill-rule:nonzero;stroke:none"
           id="path3057" />
      </g>
      <g
         id="g3059"
         transform="matrix(1.25,0,0,-1.25,401.24777,541.70134)">
        <path
           inkscape:connector-curvature="0"
           d="m 0,0 c 0,-0.96 -0.779,-1.739 -1.74,-1.739 -0.961,0 -1.739,0.779 -1.739,1.739 0,0.961 0.778,1.739 1.739,1.739 C -0.779,1.739 0,0.961 0,0"
           style="fill:#ffffff;fill-opacity:1;fill-rule:nonzero;stroke:none"
           id="path3061" />
      </g>
      <g
         id="g3063"
         transform="matrix(1.25,0,0,-1.25,368.57802,537.64621)">
        <path
           inkscape:connector-curvature="0"
           d="m 0,0 c 0,-5.762 -4.671,-10.433 -10.433,-10.433 -5.761,0 -10.432,4.671 -10.432,10.433 0,5.762 4.671,10.433 10.432,10.433 C -4.671,10.433 0,5.762 0,0"
           style="fill:#9bbc21;fill-opacity:1;fill-rule:nonzero;stroke:none"
           id="path3065" />
      </g>
      <g
         id="g3067"
         transform="matrix(1.25,0,0,-1.25,357.59352,534.29784)">
        <path
           inkscape:connector-curvature="0"
           d="m 0,0 c 0,-2.311 -1.873,-4.184 -4.183,-4.184 -2.309,0 -4.182,1.873 -4.182,4.184 0,2.31 1.873,4.182 4.182,4.182 C -1.873,4.182 0,2.31 0,0"
           style="fill:#ffffff;fill-opacity:1;fill-rule:nonzero;stroke:none"
           id="path3069" />
      </g>
      <g
         id="g3071"
         transform="matrix(1.25,0,0,-1.25,360.53114,541.70134)">
        <path
           inkscape:connector-curvature="0"
           d="m 0,0 c 0,-0.96 -0.779,-1.739 -1.739,-1.739 -0.96,0 -1.739,0.779 -1.739,1.739 0,0.961 0.779,1.739 1.739,1.739 C -0.779,1.739 0,0.961 0,0"
           style="fill:#ffffff;fill-opacity:1;fill-rule:nonzero;stroke:none"
           id="path3073" />
      </g>
      <g
         id="g3075"
         transform="matrix(1.25,0,0,-1.25,332.72114,540.31346)">
        <path
           inkscape:connector-curvature="0"
           d="m 0,0 c 0,-3.585 -2.241,-6.49 -5.005,-6.49 -2.764,0 -5.005,2.905 -5.005,6.49 l 0,10.422 c 0,3.585 2.241,6.491 5.005,6.491 C -2.241,16.913 0,14.007 0,10.422 L 0,0 z"
           style="fill:#000000;fill-opacity:1;fill-rule:nonzero;stroke:none"
           id="path3077" />
      </g>
      <g
         id="g3079"
         transform="matrix(1.25,0,0,-1.25,322.67601,535.62834)">
        <path
           inkscape:connector-curvature="0"
           d="m 0,0 c 0,-2.675 -1.672,-4.845 -3.736,-4.845 -2.064,0 -3.736,2.17 -3.736,4.845 l 0,2.926 c 0,2.675 1.672,4.845 3.736,4.845 C -1.672,7.771 0,5.601 0,2.926 L 0,0 z"
           style="fill:#000000;fill-opacity:1;fill-rule:nonzero;stroke:none"
           id="path3081" />
      </g>
      <g
         id="g3083"
         transform="matrix(1.25,0,0,-1.25,418.90152,540.31346)">
        <path
           inkscape:connector-curvature="0"
           d="m 0,0 c 0,-3.585 2.24,-6.49 5.006,-6.49 2.762,0 5.004,2.905 5.004,6.49 l 0,10.422 c 0,3.585 -2.242,6.491 -5.004,6.491 C 2.24,16.913 0,14.007 0,10.422 L 0,0 z"
           style="fill:#000000;fill-opacity:1;fill-rule:nonzero;stroke:none"
           id="path3085" />
      </g>
      <g
         id="g3087"
         transform="matrix(1.25,0,0,-1.25,428.94551,535.62834)">
        <path
           inkscape:connector-curvature="0"
           d="m 0,0 c 0,-2.675 1.674,-4.845 3.736,-4.845 2.063,0 3.737,2.17 3.737,4.845 l 0,2.926 C 7.473,5.601 5.799,7.771 3.736,7.771 1.674,7.771 0,5.601 0,2.926 L 0,0 z"
           style="fill:#000000;fill-opacity:1;fill-rule:nonzero;stroke:none"
           id="path3089" />
      </g>
      <g
         id="g3091"
         transform="matrix(1.25,0,0,-1.25,392.99827,514.54071)">
        <path
           inkscape:connector-curvature="0"
           d="M 0,0 C -1.063,-1.333 -3.006,-1.555 -4.34,-0.493 L -5.889,0.739 C -7.223,1.8 -7.441,3.744 -6.381,5.078 -5.318,6.415 7.324,20.076 8.658,19.014 l 1.547,-1.231 C 11.539,16.721 1.061,1.336 0,0"
           style="fill:#000000;fill-opacity:1;fill-rule:nonzero;stroke:none"
           id="path3093" />
      </g>
      <g
         id="g3095"
         transform="matrix(1.25,0,0,-1.25,402.26827,488.44209)">
        <path
           inkscape:connector-curvature="0"
           d="M 0,0 C -1.072,-1.348 -0.85,-3.312 0.5,-4.385 1.848,-5.458 3.813,-5.235 4.885,-3.888 5.959,-2.54 5.736,-0.576 4.387,0.498 3.037,1.572 1.076,1.349 0,0"
           style="fill:#000000;fill-opacity:1;fill-rule:nonzero;stroke:none"
           id="path3097" />
      </g>
      <g
         id="g3099"
         transform="matrix(1.25,0,0,-1.25,405.83264,488.54709)">
        <path
           inkscape:connector-curvature="0"
           d="m 0,0 c -0.709,1.143 0.557,2.763 1.225,3.701 0.8,1.127 1.896,2.101 3.343,2.174 1.305,0.065 2.364,-0.033 3.481,0.702 0.908,0.595 1.859,1.483 2.39,2.438 0.047,0.083 0.073,0.139 0.129,0.209 C 9.891,8.393 10.285,7.043 10.262,6.07 10.232,4.92 10.078,3.831 9.486,2.814 8.721,1.5 7.734,0.26 6.447,-0.577 5.369,-1.276 3.943,-2.051 2.625,-2.063 1.807,-2.07 0.916,-1.768 0.32,-1.188 c -0.568,0.551 -0.425,1.122 -0.383,1.875"
           style="fill:#000000;fill-opacity:1;fill-rule:nonzero;stroke:none"
           id="path3101" />
      </g>
      <g
         id="g3103"
         transform="matrix(1.25,0,0,-1.25,352.80164,471.67934)">
        <path
           inkscape:connector-curvature="0"
           d="M 0,0 2.62,-4.521 C 2.705,-4.668 2.768,-4.945 2.691,-5.258 1.63,-7.35 -0.268,-8.007 -2.842,-7.845 -3.386,-7.647 -4.087,-7.2 -4.078,-6.962 l -2.415,4.417 c -0.823,0.401 -1.356,-1.693 -0.537,-5.395 0.77,-4.31 3.85,-5.547 10.058,-4.482 4.68,3.273 4.415,6.727 3.052,8.175 C 3.395,-0.834 0.01,1.419 0,0"
           style="fill:#000000;fill-opacity:1;fill-rule:nonzero;stroke:none"
           id="path3105" />
      </g>
      <g
         id="g3107"
         transform="matrix(1.25,0,0,-1.25,363.64889,508.32984)">
        <path
           inkscape:connector-curvature="0"
           d="M 0,0 C 0.356,-1.667 -1.489,-1.496 -3.156,-1.853 L -5.09,-2.266 c -1.668,-0.355 -3.309,0.708 -3.666,2.375 L -6.09,0.032 c -0.423,1.428 -2.037,8.615 -3.434,13.283 -0.508,1.695 -2.151,3 -2.916,3.489 -2.688,1.71 -1.081,2.076 -2.368,2.799 -0.948,0.532 4.532,0.908 4.84,0.973 l 2.707,0.457 c 0.437,-0.114 4.664,-0.869 4.214,-1.776 -0.545,-1.098 -0.876,-3.255 -0.55,-4.853 C -2.753,10.283 -0.223,1.048 0,0"
           style="fill:#000000;fill-opacity:1;fill-rule:nonzero;stroke:none"
           id="path3109" />
      </g>
    </g>
    <g
       transform="matrix(0.41447352,0,0,0.41447352,170.42894,364.27245)"
       style="font-size:69.19425964px;font-style:normal;font-variant:normal;font-weight:600;font-stretch:normal;text-align:start;line-height:125%;letter-spacing:0px;word-spacing:0px;writing-mode:lr-tb;text-anchor:start;fill:#ffffff;fill-opacity:1;stroke:none;font-family:Museo;-inkscape-font-specification:Museo Semi-Bold"
       id="flowRoot5904">
      <path
         d="m 490.04458,509.42983 c 0,14.53078 10.24076,25.80946 25.2559,25.80946 12.66254,0 19.78956,-8.4417 19.78956,-8.4417 l -4.7744,-6.50426 c 0,0 -5.60475,6.50426 -14.87677,6.50426 -8.92605,0 -15.98387,-7.74976 -15.98387,-17.36776 0,-10.24074 6.91943,-16.53742 15.70709,-16.53742 4.29004,0 10.17156,1.66066 10.17156,5.25876 l 0,2.76777 8.23412,0 0,-5.46635 c 0,-8.37249 -12.31659,-11.00188 -18.61326,-11.00188 -14.254,0 -24.90993,10.79432 -24.90993,24.97912"
         style="fill:#ffffff"
         id="path6031"
         inkscape:connector-curvature="0" />
      <path
         d="m 542.63113,521.81561 c 0,9.61799 4.63603,13.42368 12.17819,13.42368 6.08909,0 10.51753,-3.6673 12.17819,-7.33459 l 0.13839,0 c 0,0 -0.0692,0.76114 -0.0692,1.59147 l 0,0.96872 c 0,2.49099 1.59147,3.94407 4.63601,3.94407 l 8.09573,0 0,-7.40378 -2.76777,0 c -0.96872,0 -1.52227,-0.55356 -1.52227,-1.52228 l 0,-26.36301 -8.78767,0 0,16.19146 c 0,6.29667 -3.52892,11.90141 -9.89478,11.90141 -4.35924,0 -5.46635,-2.90616 -5.46635,-7.1962 l 0,-16.26065 c 0,-3.18294 -1.38389,-4.63602 -4.63602,-4.63602 l -8.3725,0 0,7.47298 2.76777,0 c 0.96872,0 1.52227,0.48436 1.52227,1.52227 l 0,13.70047"
         style="fill:#ffffff"
         id="path6033"
         inkscape:connector-curvature="0" />
      <path
         d="m 586.96195,534.40896 8.71848,0 0,-13.97724 c 0,-2.07582 0.27677,-4.01327 0.76113,-5.74312 1.59147,-5.25876 5.88152,-7.40379 9.61801,-7.40379 1.24549,0 2.14502,0.13839 2.14502,0.13839 l 0,-8.64928 c 0,0 -0.83033,-0.13839 -1.59147,-0.13839 -5.39715,0 -9.618,4.01327 -11.20947,9.06445 l -0.13839,0 c 0,0 0.13839,-0.89953 0.13839,-2.21422 l 0,-2.07583 c 0,-2.97535 -1.59147,-4.29004 -4.70521,-4.29004 l -8.02653,0 0,7.47298 2.76777,0 c 0.96871,0 1.52227,0.48436 1.52227,1.52227 l 0,26.29382"
         style="fill:#ffffff"
         id="path6035"
         inkscape:connector-curvature="0" />
      <path
         d="m 616.16949,493.37677 7.61137,0 0,-8.09573 -7.61137,0 0,8.09573 m -0.41516,36.32698 c 0,3.32132 1.38389,4.70521 4.63601,4.70521 l 8.37251,0 0,-7.40378 -2.76777,0 c -0.96872,0 -1.52227,-0.55356 -1.52227,-1.52228 l 0,-21.6578 c 0,-3.25213 -1.38389,-4.70521 -4.63602,-4.70521 l -8.37251,0 0,7.47298 2.76778,0 c 0.96871,0 1.52227,0.48436 1.52227,1.52227 l 0,21.58861"
         style="fill:#ffffff"
         id="path6037"
         inkscape:connector-curvature="0" />
      <path
         d="m 632.62584,516.76443 c 0,10.86348 8.5801,18.47486 19.3052,18.47486 10.79429,0 19.37439,-7.61138 19.37439,-18.47486 0,-10.7943 -8.5801,-18.47487 -19.37439,-18.47487 -10.7251,0 -19.3052,7.68057 -19.3052,18.47487 m 8.85686,0 c 0,-6.50426 4.77441,-11.00189 10.44834,-11.00189 5.74311,0 10.51752,4.49763 10.51752,11.00189 0,6.57344 -4.77441,11.00188 -10.51752,11.00188 -5.67393,0 -10.44834,-4.42844 -10.44834,-11.00188"
         style="fill:#ffffff"
         id="path6039"
         inkscape:connector-curvature="0" />
      <path
         d="m 675.25274,528.94262 c 0,0 4.982,6.29667 14.66919,6.29667 7.68055,0 13.56207,-4.15166 13.56207,-10.7943 0,-11.76301 -18.75164,-10.65592 -18.75164,-16.19146 0,-2.07582 2.14502,-3.18293 5.25876,-3.18293 1.93744,0 4.42843,0.83033 4.42843,2.49099 l 0,1.72986 7.74976,0 0,-3.6673 c 0,-5.74312 -7.61137,-7.33459 -12.38577,-7.33459 -7.33458,0 -13.70046,3.25214 -13.70046,10.30994 0,11.41705 18.61325,11.34787 18.61325,16.32985 0,2.3526 -2.07583,3.45971 -4.7744,3.45971 -6.0199,0 -10.51753,-5.18957 -10.51753,-5.18957 l -4.15166,5.74313"
         style="fill:#ffffff"
         id="path6041"
         inkscape:connector-curvature="0" />
      <path
         d="m 712.39277,493.37677 7.61137,0 0,-8.09573 -7.61137,0 0,8.09573 m -0.41517,36.32698 c 0,3.32132 1.38389,4.70521 4.63602,4.70521 l 8.3725,0 0,-7.40378 -2.76777,0 c -0.96872,0 -1.52227,-0.55356 -1.52227,-1.52228 l 0,-21.6578 c 0,-3.25213 -1.38389,-4.70521 -4.63602,-4.70521 l -8.3725,0 0,7.47298 2.76777,0 c 0.96872,0 1.52227,0.48436 1.52227,1.52227 l 0,21.58861"
         style="fill:#ffffff"
         id="path6043"
         inkscape:connector-curvature="0" />
      <path
         d="m 732.5164,521.46964 c 0,11.8322 9.7564,13.28529 14.66918,13.28529 1.59147,0 2.69858,-0.20758 2.69858,-0.20758 l 0,-7.68056 c 0,0 -0.62275,0.13839 -1.59147,0.13839 -2.4218,0 -6.98862,-0.83034 -6.98862,-6.64265 l 0,-14.25402 8.02653,0 0,-6.98862 -8.02653,0 0,-9.618 -8.58009,0 0,9.618 -4.7744,0 0,6.98862 4.56682,0 0,15.36113"
         style="fill:#ffffff"
         id="path6045"
         inkscape:connector-curvature="0" />
      <path
         d="m 754.9613,539.11417 -3.39052,6.22749 c 0,0 3.39053,3.5981 8.92606,3.5981 5.25876,0 10.24075,-2.83697 12.73174,-9.20284 l 12.66255,-31.89855 c 0.41517,-1.03792 0.96872,-1.2455 2.00664,-1.2455 l 1.03791,0 0,-7.47298 -5.9507,0 c -2.4218,0 -3.87488,0.89953 -4.70521,3.32132 l -6.01991,17.64454 c -0.62274,1.79905 -1.1763,4.70521 -1.1763,4.70521 l -0.13839,0 c 0,0 -0.55355,-2.90616 -1.24549,-4.70521 l -6.91943,-17.64454 c -0.89952,-2.42179 -2.14502,-3.32132 -4.63601,-3.32132 l -5.81232,0 0,7.47298 1.03791,0 c 0.96872,0 1.45308,0.20758 1.86825,1.2455 l 11.76302,26.5014 -1.1763,2.69857 c -1.2455,3.04455 -3.39052,4.49763 -5.81232,4.49763 -2.90616,0 -5.05118,-2.4218 -5.05118,-2.4218"
         style="fill:#ffffff"
         id="path6047"
         inkscape:connector-curvature="0" />
      <path
         d="m 814.97758,534.40896 9.06445,0 0,-20.61989 21.6578,0 0,20.61989 9.06445,0 0,-39.92509 c 0,-0.96871 0.55356,-1.52227 1.52227,-1.52227 l 2.97536,0 0,-7.68056 -8.85687,0 c -3.25212,0 -4.70521,1.45308 -4.70521,4.70521 l 0,16.12226 -21.6578,0 0,-16.12226 c 0,-3.25213 -1.38389,-4.70521 -4.70521,-4.70521 l -8.85687,0 0,7.68056 2.97536,0 c 0.96872,0 1.52227,0.55356 1.52227,1.52227 l 0,39.92509"
         style="fill:#ffffff"
         id="path6049"
         inkscape:connector-curvature="0" />
      <path
         d="m 863.25247,524.23741 c 0,7.0578 5.74313,11.00188 12.0398,11.00188 7.95733,0 10.65591,-6.22748 10.65591,-6.22748 l 0.13839,0 c 0,0 -0.0692,0.62275 -0.0692,1.52227 0,2.07583 1.2455,3.87488 4.49762,3.87488 l 7.88815,0 0,-7.40378 -2.76777,0 c -0.96872,0 -1.52227,-0.55356 -1.52227,-1.52228 l 0,-13.14691 c 0,-7.88813 -3.45973,-14.04643 -15.22274,-14.04643 -3.66729,0 -12.93933,0.69195 -12.93933,7.2654 l 0,3.73649 8.16492,0 0,-1.86825 c 0,-1.93744 3.11375,-2.3526 4.70521,-2.3526 4.49763,0 6.50426,1.86825 6.50426,6.91942 l 0,0.27678 -1.1071,0 c -5.74312,0 -20.96586,0.89954 -20.96586,11.97061 m 8.85686,-0.41517 c 0,-4.91279 7.2654,-5.53554 11.83222,-5.53554 l 1.52227,0 0,0.83033 c 0,4.29004 -3.32133,9.27203 -8.02653,9.27203 -3.5981,0 -5.32796,-2.21422 -5.32796,-4.56682"
         style="fill:#ffffff"
         id="path6051"
         inkscape:connector-curvature="0" />
      <path
         d="m 901.96989,516.76443 c 0,10.24074 7.47299,18.47486 19.09762,18.47486 9.61799,0 14.87676,-6.36587 14.87676,-6.36587 l -3.66729,-6.08909 c 0,0 -4.42844,4.7744 -10.44833,4.7744 -5.67393,0 -11.00189,-3.6673 -11.00189,-10.8635 0,-6.36586 4.35924,-11.00189 10.44833,-11.00189 2.14502,0 5.05118,0.83034 5.05118,2.76778 l 0,1.93743 7.74976,0 0,-4.15165 c 0,-6.08909 -8.23412,-7.95734 -12.80094,-7.95734 -12.10898,0 -19.3052,8.5109 -19.3052,18.47487"
         style="fill:#ffffff"
         id="path6053"
         inkscape:connector-curvature="0" />
      <path
         d="m 942.11662,534.40896 8.78767,0 0,-15.43032 1.93744,0 c 1.1071,0 2.56018,0.0692 3.25213,1.31469 l 5.88151,11.07109 c 1.38388,2.56018 2.56019,3.04454 5.53554,3.04454 l 6.50426,0 0,-7.40378 -2.35261,0 c -1.66066,0 -2.3526,-0.27678 -2.90615,-1.31469 l -4.01327,-7.61137 c -1.2455,-2.28341 -2.491,-2.76777 -2.491,-2.76777 l 0,-0.13839 c 0,0 1.10711,-0.55356 2.62939,-2.76777 l 8.92606,-13.2853 -9.75639,0 -7.19621,11.14028 c -0.76113,1.1071 -2.21422,1.31469 -3.32132,1.31469 l -2.62938,0 0,-22.28055 c 0,-3.25213 -1.45309,-4.01327 -4.70521,-4.01327 l -8.37251,0 0,7.47298 2.76777,0 c 0.96872,0 1.52228,0.48436 1.52228,1.52227 l 0,40.13267"
         style="fill:#ffffff"
         id="path6055"
         inkscape:connector-curvature="0" />
      <path
         d="m 976.56996,516.76443 c 0,10.03315 7.26541,18.47486 18.95923,18.47486 8.78761,0 14.18481,-5.32795 14.18481,-5.32795 l -3.6673,-6.0891 c 0,0 -4.2208,3.94407 -9.89476,3.94407 -5.32796,0 -9.89478,-3.25213 -10.58673,-9.47961 l 24.35639,0 c 0,0 0.2076,-2.21422 0.2076,-3.25213 0,-9.34122 -5.5356,-16.74501 -15.63793,-16.74501 -10.58671,0 -17.92131,7.61138 -17.92131,18.47487 m 9.27203,-4.56682 c 0.96872,-4.42843 4.15166,-7.12701 8.64928,-7.12701 3.5981,0 6.50423,2.90616 6.64263,7.12701 l -15.29191,0"
         style="fill:#ffffff"
         id="path6057"
         inkscape:connector-curvature="0" />
      <path
         d="m 1015.0863,516.76443 c 0,10.93268 6.1583,18.47486 15.7071,18.47486 8.0957,0 11.0019,-5.74312 11.0019,-5.74312 l 0.1384,0 c 0,0 0,0.55355 0,1.31469 0,2.07583 1.1763,3.5981 4.3592,3.5981 l 8.0957,0 0,-7.40378 -2.6986,0 c -0.9687,0 -1.5222,-0.55356 -1.5222,-1.52228 l 0,-35.49665 c 0,-3.25213 -1.4531,-4.70521 -4.7052,-4.70521 l -8.3725,0 0,7.47298 2.7677,0 c 0.9688,0 1.5223,0.48436 1.5223,1.52227 l 0,6.22749 c 0,1.1763 0.069,2.07582 0.069,2.07582 l -0.1384,0 c 0,0 -2.491,-4.29004 -10.1715,-4.29004 -9.3413,0 -16.0531,7.26541 -16.0531,18.47487 m 17.6445,11.07108 c -5.1895,0 -8.7185,-4.35925 -8.7185,-11.07108 0,-6.98862 4.0133,-10.9327 8.8569,-10.9327 5.8815,0 8.7185,5.39716 8.7185,10.8635 0,7.81895 -4.2901,11.14028 -8.8569,11.14028"
         style="fill:#ffffff"
         id="path6059"
         inkscape:connector-curvature="0" />
    </g>
  </g>
</svg>
