<?xml version="1.0" encoding="UTF-8" standalone="no"?>
<!-- Created with Inkscape (http://www.inkscape.org/) -->

<svg
   xmlns:dc="http://purl.org/dc/elements/1.1/"
   xmlns:cc="http://creativecommons.org/ns#"
   xmlns:rdf="http://www.w3.org/1999/02/22-rdf-syntax-ns#"
   xmlns:svg="http://www.w3.org/2000/svg"
   xmlns="http://www.w3.org/2000/svg"
   xmlns:sodipodi="http://sodipodi.sourceforge.net/DTD/sodipodi-0.dtd"
   xmlns:inkscape="http://www.inkscape.org/namespaces/inkscape"
   id="svg2985"
   version="1.1"
   inkscape:version="0.48.2 r9819"
   width="360"
   height="360"
   xml:space="preserve"
   sodipodi:docname="CuriosityHacked_logo_2013.svg"><sodipodi:namedview
     pagecolor="#ffffff"
     bordercolor="#666666"
     borderopacity="1"
     objecttolerance="10"
     gridtolerance="10"
     guidetolerance="10"
     inkscape:pageopacity="0"
     inkscape:pageshadow="2"
     inkscape:window-width="798"
     inkscape:window-height="705"
     id="namedview2987"
     showgrid="false"
     inkscape:zoom="1.1"
     inkscape:cx="229.27957"
     inkscape:cy="122.74143"
     inkscape:window-x="73"
     inkscape:window-y="9"
     inkscape:window-maximized="0"
     inkscape:current-layer="g2993" /><metadata
     id="metadata2991"><rdf:RDF><cc:Work
         rdf:about=""><dc:format>image/svg+xml</dc:format><dc:type
           rdf:resource="http://purl.org/dc/dcmitype/StillImage" /><dc:title /></cc:Work></rdf:RDF></metadata><defs
     id="defs2989"><clipPath
       id="clipPath2999"
       clipPathUnits="userSpaceOnUse"><path
         id="path3001"
         d="M 0,288 288,288 288,0 0,0 0,288 z" /></clipPath></defs><g
     transform="matrix(1.25,0,0,-1.25,0,360)"
     inkscape:label="CuriosityHacked_logo_2013_ol"
     inkscape:groupmode="layer"
     id="g2993">









































<g
   id="g4684"><g
   id="g2995"><path
     sodipodi:type="arc"
     style="fill:#ffffff;fill-opacity:1;stroke:#000000;stroke-width:3.87542033;stroke-miterlimit:4;stroke-opacity:1;stroke-dasharray:none"
     id="path4566"
     sodipodi:cx="-38.5"
     sodipodi:cy="296.5"
     sodipodi:rx="86.5"
     sodipodi:ry="86.5"
     d="m 48,296.5 a 86.5,86.5 0 1 1 -173,0 86.5,86.5 0 1 1 173,0 z"
     transform="matrix(1.2211985,0,0,-1.2211985,195.93983,501.49908)" /><g
     id="g2997"
     clip-path="url(#clipPath2999)"><g
       id="g3003"
       transform="translate(233.2773,138.5996)"><path
         d="m 0,0 c 0,-44.874 -36.381,-81.253 -81.254,-81.253 -44.877,0 -81.254,36.379 -81.254,81.253 0,44.876 36.377,81.254 81.254,81.254 C -36.381,81.254 0,44.876 0,0"
         style="fill:#badd16;fill-opacity:1;fill-rule:nonzero;stroke:none"
         id="path3005" /></g><g
       id="g3007"
       transform="translate(148.1621,142.0684)"><path
         d="m 0,0 -17.772,85.071 c 11.745,2.453 22.883,2.512 34.655,0.18 L 0,0 z"
         style="fill:#9bbc21;fill-opacity:1;fill-rule:nonzero;stroke:none"
         id="path3009" /></g><g
       id="g3011"
       transform="translate(148.1621,142.0684)"><path
         d="m 0,0 -72.72,47.587 c 6.57,10.041 14.403,17.956 24.374,24.631 L 0,0 z"
         style="fill:#9bbc21;fill-opacity:1;fill-rule:nonzero;stroke:none"
         id="path3013" /></g><g
       id="g3015"
       transform="translate(148.1621,142.0684)"><path
         d="m 0,0 -85.071,-17.771 c -2.454,11.745 -2.511,22.882 -0.18,34.65 L 0,0 z"
         style="fill:#9bbc21;fill-opacity:1;fill-rule:nonzero;stroke:none"
         id="path3017" /></g><g
       id="g3019"
       transform="translate(148.1621,142.0684)"><path
         d="m 0,0 -47.588,-72.72 c -10.04,6.571 -17.957,14.403 -24.63,24.375 L 0,0 z"
         style="fill:#9bbc21;fill-opacity:1;fill-rule:nonzero;stroke:none"
         id="path3021" /></g><g
       id="g3023"
       transform="translate(148.1621,142.0684)"><path
         d="m 0,0 17.773,-85.071 c -11.746,-2.453 -22.884,-2.51 -34.653,-0.18 L 0,0 z"
         style="fill:#9bbc21;fill-opacity:1;fill-rule:nonzero;stroke:none"
         id="path3025" /></g><g
       id="g3027"
       transform="translate(148.1621,142.0684)"><path
         d="M 0,0 72.721,-47.587 C 66.15,-57.628 58.318,-65.544 48.346,-72.218 L 0,0 z"
         style="fill:#9bbc21;fill-opacity:1;fill-rule:nonzero;stroke:none"
         id="path3029" /></g><g
       id="g3031"
       transform="translate(148.1621,142.0684)"><path
         d="m 0,0 85.072,17.771 c 2.453,-11.744 2.51,-22.881 0.18,-34.653 L 0,0 z"
         style="fill:#9bbc21;fill-opacity:1;fill-rule:nonzero;stroke:none"
         id="path3033" /></g><g
       id="g3035"
       transform="translate(148.1621,142.0684)"><path
         d="M 0,0 47.588,72.721 C 57.629,66.151 65.545,58.317 72.219,48.346 L 0,0 z"
         style="fill:#9bbc21;fill-opacity:1;fill-rule:nonzero;stroke:none"
         id="path3037" /></g><g
       id="g3039"
       transform="translate(149.0352,243.1875)" /><g
       id="g3043"
       transform="translate(149.0352,208.9707)"><path
         d="m 0,0 c -38.265,0 -69.396,-31.129 -69.396,-69.396 0,-38.264 31.131,-69.393 69.396,-69.393 38.268,0 69.398,31.129 69.398,69.393 C 69.398,-31.129 38.268,0 0,0 m 0,-168.044 c -54.396,0 -98.65,44.254 -98.65,98.648 0,54.397 44.254,98.651 98.65,98.651 54.396,0 98.654,-44.254 98.654,-98.651 0,-54.394 -44.258,-98.648 -98.654,-98.648"
         style="fill:#000000;fill-opacity:1;fill-rule:nonzero;stroke:none"
         id="path3045" /></g><g
       id="g3047"
       transform="translate(185.7109,110.9629)"><path
         d="m 0,0 c 0,-2.975 -3.271,-5.384 -7.307,-5.384 l -58.523,0 c -4.036,0 -7.309,2.409 -7.309,5.384 l 0,43.09 c 0,2.973 3.273,5.383 7.309,5.383 l 58.523,0 C -3.271,48.473 0,46.063 0,43.09 L 0,0 z"
         style="fill:#000000;fill-opacity:1;fill-rule:nonzero;stroke:none"
         id="path3049" /></g><g
       id="g3051"
       transform="translate(175.7949,135.1865)"><path
         d="m 0,0 c 0,-5.762 -4.67,-10.433 -10.432,-10.433 -5.761,0 -10.433,4.671 -10.433,10.433 0,5.762 4.672,10.433 10.433,10.433 C -4.67,10.433 0,5.762 0,0"
         style="fill:#9bbc21;fill-opacity:1;fill-rule:nonzero;stroke:none"
         id="path3053" /></g><g
       id="g3055"
       transform="translate(167.5723,137.8652)"><path
         d="m 0,0 c 0,-2.311 -1.873,-4.184 -4.184,-4.184 -2.308,0 -4.181,1.873 -4.181,4.184 0,2.31 1.873,4.182 4.181,4.182 C -1.873,4.182 0,2.31 0,0"
         style="fill:#ffffff;fill-opacity:1;fill-rule:nonzero;stroke:none"
         id="path3057" /></g><g
       id="g3059"
       transform="translate(169.9219,131.9424)"><path
         d="m 0,0 c 0,-0.96 -0.779,-1.739 -1.74,-1.739 -0.961,0 -1.739,0.779 -1.739,1.739 0,0.961 0.778,1.739 1.739,1.739 C -0.779,1.739 0,0.961 0,0"
         style="fill:#ffffff;fill-opacity:1;fill-rule:nonzero;stroke:none"
         id="path3061" /></g><g
       id="g3063"
       transform="translate(143.7861,135.1865)"><path
         d="m 0,0 c 0,-5.762 -4.671,-10.433 -10.433,-10.433 -5.761,0 -10.432,4.671 -10.432,10.433 0,5.762 4.671,10.433 10.432,10.433 C -4.671,10.433 0,5.762 0,0"
         style="fill:#9bbc21;fill-opacity:1;fill-rule:nonzero;stroke:none"
         id="path3065" /></g><g
       id="g3067"
       transform="translate(134.9985,137.8652)"><path
         d="m 0,0 c 0,-2.311 -1.873,-4.184 -4.183,-4.184 -2.309,0 -4.182,1.873 -4.182,4.184 0,2.31 1.873,4.182 4.182,4.182 C -1.873,4.182 0,2.31 0,0"
         style="fill:#ffffff;fill-opacity:1;fill-rule:nonzero;stroke:none"
         id="path3069" /></g><g
       id="g3071"
       transform="translate(137.3486,131.9424)"><path
         d="m 0,0 c 0,-0.96 -0.779,-1.739 -1.739,-1.739 -0.96,0 -1.739,0.779 -1.739,1.739 0,0.961 0.779,1.739 1.739,1.739 C -0.779,1.739 0,0.961 0,0"
         style="fill:#ffffff;fill-opacity:1;fill-rule:nonzero;stroke:none"
         id="path3073" /></g><g
       id="g3075"
       transform="translate(115.1006,133.0527)"><path
         d="m 0,0 c 0,-3.585 -2.241,-6.49 -5.005,-6.49 -2.764,0 -5.005,2.905 -5.005,6.49 l 0,10.422 c 0,3.585 2.241,6.491 5.005,6.491 C -2.241,16.913 0,14.007 0,10.422 L 0,0 z"
         style="fill:#000000;fill-opacity:1;fill-rule:nonzero;stroke:none"
         id="path3077" /></g><g
       id="g3079"
       transform="translate(107.0645,136.8008)"><path
         d="m 0,0 c 0,-2.675 -1.672,-4.845 -3.736,-4.845 -2.064,0 -3.736,2.17 -3.736,4.845 l 0,2.926 c 0,2.675 1.672,4.845 3.736,4.845 C -1.672,7.771 0,5.601 0,2.926 L 0,0 z"
         style="fill:#000000;fill-opacity:1;fill-rule:nonzero;stroke:none"
         id="path3081" /></g><g
       id="g3083"
       transform="translate(184.0449,133.0527)"><path
         d="m 0,0 c 0,-3.585 2.24,-6.49 5.006,-6.49 2.762,0 5.004,2.905 5.004,6.49 l 0,10.422 c 0,3.585 -2.242,6.491 -5.004,6.491 C 2.24,16.913 0,14.007 0,10.422 L 0,0 z"
         style="fill:#000000;fill-opacity:1;fill-rule:nonzero;stroke:none"
         id="path3085" /></g><g
       id="g3087"
       transform="translate(192.0801,136.8008)"><path
         d="m 0,0 c 0,-2.675 1.674,-4.845 3.736,-4.845 2.063,0 3.737,2.17 3.737,4.845 l 0,2.926 C 7.473,5.601 5.799,7.771 3.736,7.771 1.674,7.771 0,5.601 0,2.926 L 0,0 z"
         style="fill:#000000;fill-opacity:1;fill-rule:nonzero;stroke:none"
         id="path3089" /></g><g
       id="g3091"
       transform="translate(163.3223,153.6709)"><path
         d="M 0,0 C -1.063,-1.333 -3.006,-1.555 -4.34,-0.493 L -5.889,0.739 C -7.223,1.8 -7.441,3.744 -6.381,5.078 -5.318,6.415 7.324,20.076 8.658,19.014 l 1.547,-1.231 C 11.539,16.721 1.061,1.336 0,0"
         style="fill:#000000;fill-opacity:1;fill-rule:nonzero;stroke:none"
         id="path3093" /></g><g
       id="g3095"
       transform="translate(170.7383,174.5498)"><path
         d="M 0,0 C -1.072,-1.348 -0.85,-3.312 0.5,-4.385 1.848,-5.458 3.813,-5.235 4.885,-3.888 5.959,-2.54 5.736,-0.576 4.387,0.498 3.037,1.572 1.076,1.349 0,0"
         style="fill:#000000;fill-opacity:1;fill-rule:nonzero;stroke:none"
         id="path3097" /></g><g
       id="g3099"
       transform="translate(173.5898,174.4658)"><path
         d="m 0,0 c -0.709,1.143 0.557,2.763 1.225,3.701 0.8,1.127 1.896,2.101 3.343,2.174 1.305,0.065 2.364,-0.033 3.481,0.702 0.908,0.595 1.859,1.483 2.39,2.438 0.047,0.083 0.073,0.139 0.129,0.209 C 9.891,8.393 10.285,7.043 10.262,6.07 10.232,4.92 10.078,3.831 9.486,2.814 8.721,1.5 7.734,0.26 6.447,-0.577 5.369,-1.276 3.943,-2.051 2.625,-2.063 1.807,-2.07 0.916,-1.768 0.32,-1.188 c -0.568,0.551 -0.425,1.122 -0.383,1.875"
         style="fill:#000000;fill-opacity:1;fill-rule:nonzero;stroke:none"
         id="path3101" /></g><g
       id="g3103"
       transform="translate(131.165,187.96)"><path
         d="M 0,0 2.62,-4.521 C 2.705,-4.668 2.768,-4.945 2.691,-5.258 1.63,-7.35 -0.268,-8.007 -2.842,-7.845 -3.386,-7.647 -4.087,-7.2 -4.078,-6.962 l -2.415,4.417 c -0.823,0.401 -1.356,-1.693 -0.537,-5.395 0.77,-4.31 3.85,-5.547 10.058,-4.482 4.68,3.273 4.415,6.727 3.052,8.175 C 3.395,-0.834 0.01,1.419 0,0"
         style="fill:#000000;fill-opacity:1;fill-rule:nonzero;stroke:none"
         id="path3105" /></g><g
       id="g3107"
       transform="translate(139.8428,158.6396)"><path
         d="M 0,0 C 0.356,-1.667 -1.489,-1.496 -3.156,-1.853 L -5.09,-2.266 c -1.668,-0.355 -3.309,0.708 -3.666,2.375 L -6.09,0.032 c -0.423,1.428 -2.037,8.615 -3.434,13.283 -0.508,1.695 -2.151,3 -2.916,3.489 -2.688,1.71 -1.081,2.076 -2.368,2.799 -0.948,0.532 4.532,0.908 4.84,0.973 l 2.707,0.457 c 0.437,-0.114 4.664,-0.869 4.214,-1.776 -0.545,-1.098 -0.876,-3.255 -0.55,-4.853 C -2.753,10.283 -0.223,1.048 0,0"
         style="fill:#000000;fill-opacity:1;fill-rule:nonzero;stroke:none"
         id="path3109" /></g></g></g><text
   transform="matrix(0.62434601,0.78114791,0.78114791,-0.62434601,84.748,180.606)"
   id="text3111"><tspan
     style="fill:#ffffff;fill-opacity:1;fill-rule:nonzero;stroke:none;font-family:Museo 700;font-variant:normal;font-weight:600;font-stretch:normal;font-size:22.67957158;writing-mode:lr;-inkscape-font-specification:Museo-700"
     x="0"
     y="0"
     id="tspan3113">C</tspan></text>

<text
   transform="matrix(0.80528928,0.59288209,0.59288209,-0.80528928,97.3652,195.7095)"
   id="text3115"><tspan
     style="fill:#ffffff;fill-opacity:1;fill-rule:nonzero;stroke:none;font-family:Museo 700;font-variant:normal;font-weight:600;font-stretch:normal;font-size:22.67955177;writing-mode:lr;-inkscape-font-specification:Museo-700"
     x="0"
     y="0"
     id="tspan3117">U</tspan></text>

<text
   transform="matrix(0.92802352,0.37252161,0.37252161,-0.92802352,114.1514,207.3091)"
   id="text3119"><tspan
     style="fill:#ffffff;fill-opacity:1;fill-rule:nonzero;stroke:none;font-family:Museo 700;font-variant:normal;font-weight:600;font-stretch:normal;font-size:22.67948986;writing-mode:lr;-inkscape-font-specification:Museo-700"
     x="0"
     y="0"
     id="tspan3121">R</tspan></text>

<text
   transform="matrix(0.98293811,0.18393658,0.18393658,-0.98293811,131.1904,213.4004)"
   id="text3123"><tspan
     style="fill:#ffffff;fill-opacity:1;fill-rule:nonzero;stroke:none;font-family:Museo 700;font-variant:normal;font-weight:600;font-stretch:normal;font-size:22.67955602;writing-mode:lr;-inkscape-font-specification:Museo-700"
     x="0"
     y="0"
     id="tspan3125">I</tspan></text>

<text
   transform="matrix(0.99948638,-0.03204649,-0.03204649,-0.99948638,142.5146,215.6592)"
   id="text3127"><tspan
     style="fill:#ffffff;fill-opacity:1;fill-rule:nonzero;stroke:none;font-family:Museo 700;font-variant:normal;font-weight:600;font-stretch:normal;font-size:22.67954869;writing-mode:lr;-inkscape-font-specification:Museo-700"
     x="0"
     y="0"
     id="tspan3129">O</tspan></text>

<text
   transform="matrix(0.96088812,-0.27693684,-0.27693684,-0.96088812,164.0977,214.1772)"
   id="text3131"><tspan
     style="fill:#ffffff;fill-opacity:1;fill-rule:nonzero;stroke:none;font-family:Museo 700;font-variant:normal;font-weight:600;font-stretch:normal;font-size:22.67953934;writing-mode:lr;-inkscape-font-specification:Museo-700"
     x="0"
     y="0"
     id="tspan3133">S</tspan></text>

<text
   transform="matrix(0.89365424,-0.44875617,-0.44875617,-0.89365424,179.5586,209.1274)"
   id="text3135"><tspan
     style="fill:#ffffff;fill-opacity:1;fill-rule:nonzero;stroke:none;font-family:Museo 700;font-variant:normal;font-weight:600;font-stretch:normal;font-size:22.67957683;writing-mode:lr;-inkscape-font-specification:Museo-700"
     x="0"
     y="0"
     id="tspan3137">I</tspan></text>

<text
   transform="matrix(0.78741856,-0.6164187,-0.6164187,-0.78741856,189.9131,203.8882)"
   id="text3139"><tspan
     style="fill:#ffffff;fill-opacity:1;fill-rule:nonzero;stroke:none;font-family:Museo 700;font-variant:normal;font-weight:600;font-stretch:normal;font-size:22.67955191;writing-mode:lr;-inkscape-font-specification:Museo-700"
     x="0"
     y="0"
     id="tspan3141">T</tspan></text>

<text
   transform="matrix(0.61907814,-0.78532939,-0.78532939,-0.61907814,204.3096,191.9624)"
   id="text3143"><tspan
     style="fill:#ffffff;fill-opacity:1;fill-rule:nonzero;stroke:none;font-family:Museo 700;font-variant:normal;font-weight:600;font-stretch:normal;font-size:22.67952801;writing-mode:lr;-inkscape-font-specification:Museo-700"
     x="0"
     y="0"
     id="tspan3145">Y</tspan></text>

<text
   transform="matrix(0.82206667,-0.56939125,-0.56939125,-0.82206667,88.6221,68.7617)"
   id="text3147"><tspan
     style="fill:#ffffff;fill-opacity:1;fill-rule:nonzero;stroke:none;font-family:Museo 700;font-variant:normal;font-weight:600;font-stretch:normal;font-size:24.38147758;writing-mode:lr;-inkscape-font-specification:Museo-700"
     x="0"
     y="0"
     id="tspan3149">H</tspan></text>

<text
   transform="matrix(0.94611727,-0.32382421,-0.32382421,-0.94611727,111.2598,54.6016)"
   id="text3151"><tspan
     style="fill:#ffffff;fill-opacity:1;fill-rule:nonzero;stroke:none;font-family:Museo 700;font-variant:normal;font-weight:600;font-stretch:normal;font-size:24.38143854;writing-mode:lr;-inkscape-font-specification:Museo-700"
     x="0"
     y="0"
     id="tspan3153">A</tspan></text>

<text
   transform="matrix(0.99773963,-0.06719846,-0.06719846,-0.99773963,134.0972,47.7646)"
   id="text3155"><tspan
     style="fill:#ffffff;fill-opacity:1;fill-rule:nonzero;stroke:none;font-family:Museo 700;font-variant:normal;font-weight:600;font-stretch:normal;font-size:24.38151126;writing-mode:lr;-inkscape-font-specification:Museo-700"
     x="0"
     y="0"
     id="tspan3157">C</tspan></text>

<text
   transform="matrix(0.98206295,0.18855333,0.18855333,-0.98206295,159.0127,47.1787)"
   id="text3159"><tspan
     style="fill:#ffffff;fill-opacity:1;fill-rule:nonzero;stroke:none;font-family:Museo 700;font-variant:normal;font-weight:600;font-stretch:normal;font-size:24.3814309;writing-mode:lr;-inkscape-font-specification:Museo-700"
     x="0"
     y="0"
     id="tspan3161">K</tspan></text>

<text
   transform="matrix(0.90834602,0.41821946,0.41821946,-0.90834602,181.3223,52.4678)"
   id="text3163"><tspan
     style="fill:#ffffff;fill-opacity:1;fill-rule:nonzero;stroke:none;font-family:Museo 700;font-variant:normal;font-weight:600;font-stretch:normal;font-size:24.38145772;writing-mode:lr;-inkscape-font-specification:Museo-700"
     x="0"
     y="0"
     id="tspan3165">E</tspan></text>

<text
   transform="matrix(0.77529286,0.63160192,0.63160192,-0.77529286,200.7275,62.2383)"
   id="text3167"><tspan
     style="fill:#ffffff;fill-opacity:1;fill-rule:nonzero;stroke:none;font-family:Museo 700;font-variant:normal;font-weight:600;font-stretch:normal;font-size:24.38149643;writing-mode:lr;-inkscape-font-specification:Museo-700"
     x="0"
     y="0"
     id="tspan3169">D</tspan></text>

</g>


</g></svg>